<svg
	version="1"
	xmlns="http://www.w3.org/2000/svg"
	width="342.667"
	height="342.667"
	viewBox="0 0 257.000000 257.000000"
><path
		d="M118.9 29.4c-.2.2-2.9.6-5.9 1-19.8 2.1-44.8 15-59.6 30.7-24.3 25.7-33.8 63.3-24.7 97.4 12.3 46.2 55.7 77.9 103.6 75.9 5.5-.2 10.2-.6 10.5-.8.4-.2 2.8-.7 5.3-1 20.4-2.7 46.2-18.6 61-37.6 14.6-18.7 22.1-41.9 21.4-66.5-.7-26.7-11.1-50.4-30.4-69.6-13.9-13.7-30.9-23-50.1-27.4-6.5-1.5-30-3-31.1-2.1zm24.5 11.2c34.6 6 62 30 73 63.7 6.2 18.9 5.3 42.8-2.2 61.7-8.2 20.6-24.7 38.7-44.2 48.5-10.6 5.3-11.9 5.4-7 .5 5.3-5.3 8.1-11.6 8.8-19.7 1.3-16.4-8-24.8-40.6-36.2-16.1-5.7-18.2-6.7-18.2-8.4 0-1 3-1.2 12.3-1 20.8.4 33.4-4.3 41.9-15.7 5.4-7.3 7.3-20.7 4.3-30.6-1.2-4-2.2-5.3-5.7-7.4l-4.3-2.5 5.6-.3 5.6-.3 1.5-7.5 1.5-7.5-7.6.6c-4.2.4-9.8.8-12.5 1.1-2.7.2-5.1.5-5.3.8-.2.2-2.1 0-4.1-.5-2-.5-7.6-1.1-12.3-1.5-15.2-1.1-27.4 3-36.5 12.1-6.9 6.9-9.5 12.8-10.1 23-.6 9.9 1.9 17.6 7.9 24.1l4 4.3-5 8.2c-4.6 7.6-4.9 8.5-4 11.8 2.1 7.6 6.5 10.4 27 17.1 16.8 5.4 22.6 8.7 26.1 14.8 5.3 9.1-5.3 19.3-20.2 19.2-18-.1-25-10.4-14.5-21.1l3.6-3.7-3.8-4.6-3.8-4.6-5.5 3.1c-7.2 4-11.9 8.4-14.2 13.4-2.3 4.9-2.4 11.6-.4 15.5.9 1.7 1.1 3 .6 3-2.1 0-15.4-9.9-21.7-16-17.9-17.5-27.7-40.2-27.8-64.5 0-6.1.3-12.9.7-15.2 8.1-51.4 56.6-86.6 107.1-77.7zm-6.1 52.5c7.5 3.9 10.9 11.5 10.2 22.9-.7 12.1-6.5 19.5-16.2 20.7-13.9 1.6-22.7-13.5-18.4-31.4 1.5-6 6.5-11.8 11.4-13.1 3.9-1.1 10-.6 13 .9z"
	/></svg>
